<svg width="128" height="128" viewBox="0 0 128 128" xmlns="http://www.w3.org/2000/svg" role="img" aria-labelledby="title">
  <title id="title">Omega Central de chamados</title>
  <defs>
    <linearGradient id="omegaGradient" x1="12%" y1="8%" x2="88%" y2="92%">
      <stop offset="0%" stop-color="#1e3a8a"/>
      <stop offset="50%" stop-color="#2563eb"/>
      <stop offset="100%" stop-color="#38bdf8"/>
    </linearGradient>
    <linearGradient id="omegaHighlight" x1="0%" y1="0%" x2="100%" y2="100%">
      <stop offset="0%" stop-color="rgba(255,255,255,0.35)"/>
      <stop offset="100%" stop-color="rgba(255,255,255,0)"/>
    </linearGradient>
  </defs>
  <g fill="none" fill-rule="evenodd">
    <circle cx="64" cy="64" r="60" fill="url(#omegaGradient)"/>
    <path d="M104 52c0 26.509-17.86 48-40 48S24 78.509 24 52c0-17.673 13.431-32 30-32h20c16.569 0 30 14.327 30 32Z" fill="url(#omegaHighlight)" opacity=".4"/>
    <path d="M64 95c-15.464 0-28-14.715-28-32.855C36 44.124 46.29 33 61.443 33h5.114C81.71 33 92 44.124 92 62.145 92 80.285 79.464 95 64 95Zm.033-14.801c7.788 0 14.1-7.873 14.1-18.24 0-10.216-5.83-17.933-13.9-17.933h-.066c-8.07 0-13.9 7.717-13.9 17.933 0 10.367 6.313 18.24 14.1 18.24Z" fill="#fff" opacity=".94"/>
    <path d="M50 96c1.39 6.4 6.893 11 14 11s12.61-4.6 14-11h8c-1.637 11.185-10.438 19-22 19s-20.363-7.815-22-19h8Z" fill="#dbeafe" opacity=".85"/>
  </g>
</svg>
